<?xml version="1.0" encoding="UTF-8"?>
<svg id="Layer_1" xmlns="http://www.w3.org/2000/svg" version="1.1" xmlns:xlink="http://www.w3.org/1999/xlink" viewBox="0 0 1030.3 266">
  <!-- Generator: Adobe Illustrator 29.3.1, SVG Export Plug-In . SVG Version: 2.1.0 Build 151)  -->
  <defs>
    <style>
      .st0 {
        fill: none;
      }

      .st1 {
        clip-path: url(#clippath-1);
      }

      .st2 {
        clip-path: url(#clippath-3);
      }

      .st3 {
        opacity: .8;
      }

      .st4 {
        fill: #404042;
      }

      .st5 {
        fill: #414042;
      }

      .st6 {
        fill: #d91f27;
      }

      .st7 {
        clip-path: url(#clippath-2);
      }

      .st8 {
        clip-path: url(#clippath);
      }
    </style>
    <clipPath id="clippath">
      <rect class="st0" width="1030.3" height="266"/>
    </clipPath>
    <clipPath id="clippath-1">
      <rect class="st0" width="1030.3" height="266"/>
    </clipPath>
    <clipPath id="clippath-2">
      <rect class="st0" x="324.4" y="170.9" width="704.1" height="41.9"/>
    </clipPath>
    <clipPath id="clippath-3">
      <rect class="st0" x="322.2" y="219.1" width="702.4" height="45.5"/>
    </clipPath>
  </defs>
  <g class="st8">
    <polygon class="st6" points="58.6 142.9 0 259.1 74.9 259.1 108.8 189 144.4 259.1 154.4 259.1 96.1 142.9 58.6 142.9"/>
    <polygon class="st6" points="144.4 259.1 203 142.9 240.5 142.9 298.8 259.1 288.8 259.1 253.3 189 219.3 259.1 144.4 259.1"/>
    <g class="st1">
      <path class="st6" d="M242.3,146.5h-10.1l-50.4-100.4-34,70.2-12.4,26.7h-39.3l-23.1-26.7L131.6,0h37.5c24.4,48.9,48.8,97.7,73.2,146.5"/>
      <path class="st4" d="M380.6,46.2l15.7,51.5h-31.5l15.8-51.5ZM364.6,24.2l-39.2,119.2h25.3l8.2-26.5h43.2l8.2,26.5h28.2l-38.7-119.2h-35.2Z"/>
      <polygon class="st4" points="612.4 24.2 584.9 98.4 557.1 24.2 521.4 24.2 521.4 143.4 545.6 143.4 545.6 59.7 578.7 143.4 587.6 143.4 620.6 59.7 620.6 143.4 647.4 143.4 647.4 24.2 612.4 24.2"/>
      <path class="st4" d="M785.6,46.2l15.7,51.5h-31.5l15.8-51.5ZM769.6,24.2l-39.2,119.2h25.3l8.2-26.5h43.2l8.2,26.5h28.2l-38.7-119.2h-35.2Z"/>
      <polygon class="st4" points="1003.1 24.2 1003.1 102.7 957.8 24.2 926.4 24.2 926.4 143.4 950.4 143.4 950.4 58.6 1000.1 143.4 1027.1 143.4 1027.1 24.2 1003.1 24.2"/>
      <g class="st3">
        <g class="st7">
          <path class="st5" d="M341.5,199.5c-1.1.6-2.4.9-3.8.9s-2.7-.3-3.9-.9c-1.2-.6-2.1-1.4-3-2.4-.8-1.1-1.4-2.3-1.9-3.8-.4-1.5-.7-3.2-.7-5s.2-3.5.7-5c.5-1.5,1.1-2.7,1.9-3.8.8-1,1.8-1.8,3-2.4,1.2-.6,2.5-.8,3.9-.8s2.4.2,3.4.7c1,.5,1.9,1.2,2.7,2l2.2-2.4c-.9-1-2-1.8-3.4-2.6-1.4-.7-3-1.1-4.8-1.1s-3.7.4-5.4,1.1c-1.6.7-3.1,1.7-4.3,3.1-1.2,1.3-2.2,2.9-2.8,4.8-.7,1.9-1,4-1,6.4s.3,4.6,1,6.5,1.6,3.5,2.8,4.8c1.2,1.3,2.6,2.3,4.2,3,1.6.7,3.4,1,5.3,1s3.7-.4,5.2-1.1c1.5-.8,2.8-1.8,4-3.2l-2.2-2.3c-1,1.1-2,1.9-3.1,2.4"/>
          <path class="st5" d="M377.2,183.6c-1-1-2.1-1.8-3.3-2.3-1.2-.5-2.6-.8-3.9-.8s-2.7.3-3.9.8c-1.2.5-2.3,1.3-3.3,2.3-1,1-1.7,2.2-2.3,3.6-.6,1.4-.9,3.1-.9,4.9s.3,3.4.9,4.9c.6,1.4,1.3,2.6,2.3,3.6,1,1,2.1,1.7,3.3,2.2,1.2.5,2.6.8,3.9.8s2.7-.3,3.9-.8c1.2-.5,2.3-1.3,3.3-2.2,1-1,1.7-2.2,2.3-3.6.6-1.4.9-3.1.9-4.9s-.3-3.5-.9-4.9c-.6-1.4-1.3-2.6-2.3-3.6M376,195.6c-.3,1-.7,1.9-1.3,2.6-.6.7-1.3,1.3-2,1.7-.8.4-1.7.6-2.6.6s-1.8-.2-2.6-.6c-.8-.4-1.5-1-2.1-1.7-.6-.7-1-1.6-1.3-2.6-.3-1-.5-2.2-.5-3.4s.2-2.4.5-3.5c.3-1,.7-1.9,1.3-2.7.6-.8,1.3-1.3,2.1-1.7.8-.4,1.7-.6,2.6-.6s1.8.2,2.6.6c.8.4,1.5,1,2,1.7.6.8,1,1.6,1.3,2.7.3,1,.5,2.2.5,3.5s-.2,2.4-.5,3.4"/>
          <path class="st5" d="M406.6,180.6c-1.6,0-2.9.4-4.1,1.1-1.2.7-2.3,1.6-3.4,2.6h-.1l-.3-3.2h-3.1v22h3.8v-15.9c1.1-1.1,2.2-2,3-2.5.9-.6,1.9-.9,3.1-.9s2.6.5,3.2,1.4c.7.9,1,2.4,1,4.5v13.4h3.8v-13.9c0-2.8-.5-5-1.6-6.4-1.1-1.4-2.8-2.2-5.2-2.2"/>
          <path class="st5" d="M441.8,192.6c-.6-.5-1.4-.9-2.2-1.2-.8-.3-1.6-.6-2.4-.9-.6-.2-1.3-.5-1.9-.7-.6-.2-1.1-.5-1.6-.8-.5-.3-.8-.6-1.1-1-.3-.4-.4-.8-.4-1.3,0-.8.3-1.6,1-2.2.7-.6,1.7-.9,3.1-.9s1.9.2,2.7.5c.8.4,1.6.8,2.4,1.4l1.8-2.3c-.9-.7-1.9-1.3-3.1-1.8-1.2-.5-2.5-.7-3.9-.7s-2.3.2-3.2.5c-1,.3-1.8.8-2.4,1.3-.7.6-1.2,1.2-1.5,2-.4.8-.5,1.6-.5,2.5s.2,1.7.6,2.4c.4.7.9,1.2,1.5,1.7.6.5,1.3.9,2.1,1.3.8.4,1.6.7,2.4.9.6.2,1.2.5,1.8.7.6.2,1.2.5,1.6.8.5.3.9.7,1.2,1.1.3.4.5.9.5,1.5,0,1-.4,1.8-1.1,2.5-.7.7-1.8,1-3.3,1s-2.5-.2-3.6-.7c-1-.5-2-1.1-3-1.9l-1.9,2.5c1.1.9,2.3,1.6,3.8,2.2,1.4.6,3,.9,4.6.9s2.5-.2,3.5-.5c1-.3,1.9-.8,2.6-1.4.7-.6,1.2-1.3,1.6-2.1.4-.8.5-1.6.5-2.5s-.2-1.9-.6-2.6c-.4-.7-.9-1.3-1.6-1.8"/>
          <path class="st5" d="M472.3,196.7c-1.1,1.3-2.1,2.2-3,2.8-.9.6-1.9.9-3.1.9s-2.5-.5-3.2-1.4c-.7-.9-1-2.4-1-4.5v-13.4h-3.8v13.9c0,2.8.5,5,1.6,6.4,1.1,1.4,2.8,2.2,5.2,2.2s2.9-.4,4.1-1.1c1.2-.7,2.3-1.7,3.3-2.9h.1l.3,3.4h3.1v-22h-3.8v15.6Z"/>
          <path class="st5" d="M498.1,200.6h-.3c-.3,0-.5-.1-.7-.4-.2-.2-.3-.7-.3-1.3v-28h-3.8v27.8c0,1.6.3,2.9.9,3.7.6.8,1.6,1.3,3.1,1.3s1,0,1.3,0c.3,0,.6-.1.9-.3l-.5-2.8c-.2,0-.4,0-.5,0"/>
          <path class="st5" d="M523.1,200.4c-.5.1-.9.2-1.3.2-1.3,0-2.2-.4-2.7-1.1-.5-.7-.8-1.8-.8-3.2v-12.2h6v-3h-6v-6.2h-3.2l-.5,6.2-3.5.2v2.8h3.3v12.2c0,1.1.1,2.1.3,3,.2.9.6,1.7,1.1,2.3.5.6,1.2,1.1,2,1.5.8.4,1.8.5,3,.5s1.4,0,2.1-.2c.7-.2,1.4-.4,2-.6l-.7-2.8c-.4.2-.8.3-1.2.4"/>
          <path class="st5" d="M546.5,180.6c-1.8,0-3.5.3-5,.9-1.5.6-2.8,1.3-3.8,1.9l1.5,2.6c.9-.6,1.9-1.1,3-1.6,1.1-.5,2.3-.7,3.7-.7s1.7.2,2.3.5c.6.3,1.1.7,1.4,1.2.3.5.6,1.1.7,1.8.1.7.2,1.3.2,2-4.8.5-8.3,1.4-10.5,2.7-2.2,1.3-3.3,3.1-3.3,5.5s.6,3.5,1.9,4.6c1.2,1.1,2.8,1.6,4.7,1.6s2.7-.3,3.9-.9c1.2-.6,2.4-1.4,3.5-2.2h0l.3,2.6h3.1v-13.5c0-2.7-.6-4.9-1.8-6.6-1.2-1.6-3.2-2.5-6-2.5M550.5,197.7c-1.1,1-2.1,1.7-3.1,2.2-1,.5-2,.7-3.1.7s-2-.3-2.8-.8c-.8-.5-1.1-1.4-1.1-2.7s.2-1.3.5-1.9c.3-.6.9-1.1,1.7-1.6.8-.5,1.8-.8,3.1-1.2,1.3-.3,2.9-.6,4.8-.9v6.1Z"/>
          <path class="st5" d="M581.8,180.6c-1.6,0-2.9.4-4.1,1.1-1.2.7-2.3,1.6-3.4,2.6h-.1l-.3-3.2h-3.1v22h3.8v-15.9c1.1-1.1,2.2-2,3-2.5.9-.6,1.9-.9,3.1-.9s2.6.5,3.2,1.4c.7.9,1,2.4,1,4.5v13.4h3.8v-13.9c0-2.8-.5-5-1.6-6.4-1.1-1.4-2.8-2.2-5.2-2.2"/>
          <path class="st5" d="M617.3,199.9c-.9.4-1.9.7-2.9.7s-2-.2-2.8-.6c-.9-.4-1.6-1-2.2-1.7-.6-.7-1.1-1.6-1.4-2.6-.3-1-.5-2.2-.5-3.4s.2-2.4.5-3.5c.4-1,.8-1.9,1.5-2.7.6-.8,1.4-1.3,2.2-1.7.9-.4,1.8-.6,2.8-.6s1.7.2,2.4.5c.7.4,1.4.8,2.1,1.4l1.9-2.4c-.8-.7-1.7-1.3-2.7-1.8-1.1-.5-2.3-.8-3.8-.8s-2.8.3-4.1.8c-1.3.5-2.5,1.3-3.4,2.3-1,1-1.8,2.2-2.4,3.6-.6,1.4-.9,3.1-.9,4.9s.3,3.4.8,4.9c.5,1.4,1.3,2.6,2.2,3.6.9,1,2.1,1.7,3.3,2.2,1.3.5,2.7.8,4.2.8s2.7-.3,3.9-.8c1.2-.5,2.4-1.2,3.4-2.1l-1.7-2.4c-.7.6-1.5,1.1-2.3,1.6"/>
          <path class="st5" d="M645.3,193.3c-.3,1-.6,2-.9,3.1-.3,1.1-.6,2.1-1,3.1h-.2c-.3-1-.7-2.1-1.1-3.1-.4-1.1-.7-2.1-1.1-3.1l-4.6-12.2h-3.9l9,22-.5,1.6c-.5,1.4-1.1,2.5-1.9,3.4-.8.9-1.9,1.3-3.2,1.3s-.6,0-.9-.1c-.3,0-.6-.1-.8-.2l-.7,2.9c.4.1.8.3,1.2.3.4,0,.9.1,1.4.1,1.1,0,2.1-.2,3-.6.9-.4,1.6-.9,2.3-1.6.7-.7,1.3-1.5,1.8-2.4.5-.9.9-1.9,1.3-3l8.4-23.8h-3.7l-4,12.2Z"/>
          <polygon class="st5" points="730.4 176.9 739.5 176.9 739.5 202.9 743.2 202.9 743.2 176.9 752.2 176.9 752.2 173.8 730.4 173.8 730.4 176.9"/>
          <path class="st5" d="M777.9,183.5c-.7-.9-1.7-1.6-2.8-2-1.1-.5-2.3-.7-3.7-.7s-2.5.3-3.7.8c-1.2.5-2.2,1.3-3.2,2.2-.9,1-1.7,2.2-2.2,3.6-.6,1.4-.8,3-.8,4.8s.3,3.4.8,4.8c.5,1.4,1.3,2.6,2.2,3.5,1,1,2.1,1.7,3.4,2.2,1.3.5,2.7.8,4.1.8s2.9-.2,4-.7c1.2-.5,2.2-1,3.2-1.6l-1.3-2.4c-.8.5-1.7.9-2.6,1.2-.9.3-1.9.5-2.9.5-2.1,0-3.8-.7-5.1-2-1.3-1.4-2-3.2-2.2-5.6h14.9c0-.5.1-1.2.1-2,0-1.5-.2-2.9-.6-4.2-.4-1.2-1-2.3-1.7-3.2M765.1,190.5c.1-1.1.4-2.1.7-2.9.4-.8.9-1.5,1.4-2.1.6-.6,1.2-1,1.9-1.3.7-.3,1.5-.5,2.2-.5,1.7,0,3.1.6,4,1.8.9,1.2,1.4,2.9,1.4,5.1h-11.8Z"/>
          <path class="st5" d="M806.6,199.8c-.9.4-1.8.6-2.9.6s-1.9-.2-2.8-.6c-.8-.4-1.6-1-2.2-1.7-.6-.7-1.1-1.6-1.4-2.6-.3-1-.5-2.1-.5-3.4s.2-2.4.5-3.4c.3-1,.8-1.9,1.4-2.6.6-.7,1.3-1.3,2.2-1.7.8-.4,1.8-.6,2.8-.6s1.7.2,2.4.5c.7.4,1.4.8,2.1,1.4l1.9-2.3c-.8-.7-1.7-1.3-2.7-1.8-1-.5-2.3-.8-3.7-.8s-2.8.3-4.1.8c-1.3.5-2.4,1.2-3.4,2.2-1,1-1.7,2.2-2.3,3.6-.6,1.4-.9,3-.9,4.8s.3,3.4.8,4.8c.5,1.4,1.3,2.6,2.2,3.5.9,1,2,1.7,3.3,2.2,1.3.5,2.6.8,4.1.8s2.6-.2,3.8-.8c1.2-.5,2.3-1.2,3.3-2l-1.7-2.4c-.7.6-1.4,1.1-2.3,1.5"/>
          <path class="st5" d="M835.3,180.8c-1.5,0-2.9.4-4,1.1-1.2.7-2.2,1.5-3.3,2.5v-4.4c.1,0,.1-8.6.1-8.6h-3.7v31.6h3.7v-15.6c1.1-1.1,2.1-1.9,3-2.5.9-.6,1.9-.8,3-.8s2.5.5,3.2,1.4c.7.9,1,2.4,1,4.4v13.2h3.7v-13.7c0-2.8-.5-4.9-1.6-6.3-1.1-1.4-2.8-2.1-5.1-2.1"/>
          <path class="st5" d="M869,180.8c-1.5,0-2.9.4-4.1,1.1-1.2.7-2.3,1.6-3.3,2.6h-.1l-.3-3.1h-3.1v21.6h3.7v-15.6c1.1-1.1,2.1-1.9,3-2.5.9-.6,1.9-.8,3-.8s2.5.5,3.2,1.4c.7.9,1,2.4,1,4.4v13.2h3.7v-13.7c0-2.8-.5-4.9-1.6-6.3-1.1-1.4-2.8-2.1-5.1-2.1"/>
          <path class="st5" d="M907.6,183.7c-.9-1-2-1.7-3.2-2.2-1.2-.5-2.5-.8-3.9-.8s-2.7.3-3.9.8c-1.2.5-2.3,1.2-3.2,2.2-.9,1-1.7,2.2-2.2,3.6-.6,1.4-.8,3-.8,4.8s.3,3.4.8,4.8c.6,1.4,1.3,2.6,2.2,3.5.9,1,2,1.7,3.2,2.2,1.2.5,2.5.8,3.9.8s2.7-.2,3.9-.8c1.2-.5,2.3-1.2,3.2-2.2.9-1,1.7-2.1,2.2-3.5.6-1.4.8-3,.8-4.8s-.3-3.4-.8-4.8c-.6-1.4-1.3-2.6-2.2-3.6M906.4,195.5c-.3,1-.7,1.9-1.3,2.6-.6.7-1.2,1.3-2,1.7-.8.4-1.6.6-2.6.6s-1.8-.2-2.6-.6c-.8-.4-1.5-1-2-1.7-.6-.7-1-1.6-1.3-2.6-.3-1-.5-2.1-.5-3.4s.2-2.4.5-3.4c.3-1,.7-1.9,1.3-2.6.6-.7,1.2-1.3,2-1.7.8-.4,1.6-.6,2.6-.6s1.8.2,2.6.6c.8.4,1.5,1,2,1.7.6.7,1,1.6,1.3,2.6.3,1,.5,2.1.5,3.4s-.2,2.4-.5,3.4"/>
          <path class="st5" d="M930.7,200.4h-.3c-.3,0-.5-.1-.7-.4-.2-.2-.3-.6-.3-1.2v-27.5h-3.7v27.3c0,1.6.3,2.8.9,3.6.6.8,1.6,1.2,3,1.2s.9,0,1.3,0c.3,0,.6-.1.9-.3l-.5-2.8c-.2,0-.4,0-.5,0"/>
          <path class="st5" d="M961.9,183.7c-.9-1-2-1.7-3.2-2.2-1.2-.5-2.5-.8-3.9-.8s-2.7.3-3.9.8c-1.2.5-2.3,1.2-3.2,2.2-.9,1-1.7,2.2-2.2,3.6-.6,1.4-.8,3-.8,4.8s.3,3.4.8,4.8c.6,1.4,1.3,2.6,2.2,3.5.9,1,2,1.7,3.2,2.2,1.2.5,2.5.8,3.9.8s2.7-.2,3.9-.8c1.2-.5,2.3-1.2,3.2-2.2.9-1,1.7-2.1,2.2-3.5.6-1.4.8-3,.8-4.8s-.3-3.4-.8-4.8c-.6-1.4-1.3-2.6-2.2-3.6M960.7,195.5c-.3,1-.7,1.9-1.3,2.6-.6.7-1.2,1.3-2,1.7-.8.4-1.6.6-2.6.6s-1.8-.2-2.6-.6c-.8-.4-1.5-1-2-1.7-.6-.7-1-1.6-1.3-2.6-.3-1-.5-2.1-.5-3.4s.2-2.4.5-3.4c.3-1,.7-1.9,1.3-2.6.6-.7,1.2-1.3,2-1.7.8-.4,1.6-.6,2.6-.6s1.8.2,2.6.6c.8.4,1.5,1,2,1.7.6.7,1,1.6,1.3,2.6.3,1,.5,2.1.5,3.4s-.2,2.4-.5,3.4"/>
          <path class="st5" d="M990.7,200.2h-4.3c-1.5,0-2.5-.2-3.1-.7-.5-.4-.8-1-.8-1.7s.1-1.1.4-1.5c.3-.4.6-.8,1-1.1.5.2,1.1.4,1.6.6.6.1,1.1.2,1.7.2,1.1,0,2.2-.2,3.2-.5,1-.4,1.8-.9,2.6-1.5.7-.6,1.3-1.4,1.7-2.3.4-.9.6-2,.6-3.1s-.2-1.8-.5-2.5c-.3-.8-.8-1.4-1.3-1.9h4.5v-2.8h-7.7c-.4-.1-.9-.3-1.4-.4-.5-.1-1.1-.2-1.7-.2-1.1,0-2.2.2-3.2.5-1,.4-1.9.9-2.7,1.5-.8.7-1.3,1.5-1.8,2.4-.4.9-.7,2-.7,3.2s.3,2.5.9,3.4c.6,1,1.2,1.8,2,2.4v.2c-.6.4-1.1.9-1.6,1.6-.5.7-.8,1.5-.8,2.4s.2,1.6.6,2.2c.4.6.8,1,1.4,1.4v.2c-1,.7-1.8,1.4-2.4,2.3-.6.8-.9,1.7-.9,2.6s.2,1.8.7,2.5c.4.7,1,1.3,1.9,1.8.8.5,1.8.9,2.9,1.1,1.1.2,2.3.4,3.7.4s3.3-.2,4.6-.6c1.4-.4,2.5-.9,3.5-1.6,1-.7,1.7-1.5,2.2-2.4.5-.9.8-1.9.8-2.9,0-1.8-.6-3.1-1.9-3.9-1.3-.8-3.2-1.2-5.8-1.2M983.9,184.8c.9-.9,2-1.3,3.3-1.3s2.4.4,3.3,1.3c.9.9,1.4,2.1,1.4,3.7s-.1,1.5-.4,2.2c-.2.6-.6,1.2-1,1.6-.4.4-.9.8-1.5,1-.6.2-1.2.3-1.8.3s-1.2-.1-1.8-.3c-.6-.2-1.1-.6-1.5-1-.4-.4-.8-1-1-1.6-.2-.6-.4-1.4-.4-2.2,0-1.6.5-2.8,1.4-3.7M994.3,207.6c-.3.5-.8,1-1.4,1.4-.6.4-1.3.7-2.2,1-.9.2-1.8.4-2.9.4-2,0-3.6-.3-4.7-1s-1.7-1.6-1.7-2.8.2-1.2.6-1.9c.4-.6.9-1.2,1.7-1.8.5.1,1,.2,1.5.3.5,0,1,0,1.4,0h3.8c1.5,0,2.6.2,3.3.6.7.4,1.1,1.1,1.1,2.1s-.2,1.1-.5,1.6"/>
          <path class="st5" d="M1024.8,181.3l-3.9,11.9c-.3.9-.6,2-.9,3-.3,1.1-.6,2.1-.9,3.1h-.2c-.3-1-.7-2-1.1-3.1-.4-1-.7-2-1.1-3l-4.5-11.9h-3.9l8.8,21.6-.5,1.6c-.5,1.3-1.1,2.4-1.9,3.3-.8.9-1.8,1.3-3.1,1.3s-.6,0-.9-.1c-.3,0-.6-.1-.8-.2l-.7,2.9c.4.1.8.3,1.2.3.4,0,.9.1,1.4.1,1.1,0,2.1-.2,2.9-.6.8-.4,1.6-.9,2.3-1.6.7-.7,1.2-1.5,1.7-2.4.5-.9.9-1.9,1.3-3l8.3-23.4h-3.6Z"/>
          <path class="st5" d="M700,197.4c1-1.3,1.8-2.7,2.5-4.2.7-1.5,1.2-3.1,1.7-4.7h-2.9c-.3,1.3-.8,2.7-1.4,3.9-.6,1.2-1.2,2.3-2,3.3-1.2-1-2.3-2.1-3.4-3.2-1-1.1-2-2.3-2.8-3.6l2-1.5c.6-.5,1.2-1,1.8-1.6.5-.6.9-1.2,1.3-1.9.3-.7.5-1.4.5-2.2,0-1.3-.4-2.6-1.3-3.5-.9-1-2.2-1.5-3.5-1.4-.8,0-1.6.1-2.3.4-.7.3-1.3.7-1.8,1.2-.5.5-.9,1.2-1.2,1.8-.3.7-.4,1.5-.4,2.3,0,.9.1,1.9.4,2.8.3,1,.7,2,1.2,3-.6.5-1.2.9-1.8,1.4-.6.5-1.1,1-1.5,1.6-.4.6-.8,1.2-1.1,1.9-.3.7-.4,1.5-.4,2.2,0,1,.2,1.9.5,2.8.4.8.9,1.5,1.5,2.1.7.6,1.5,1.1,2.3,1.4,1,.3,2,.5,3,.5,1.3,0,2.7-.2,3.9-.8,1.2-.5,2.2-1.2,3.1-2,.9.6,1.9,1.2,2.9,1.7.9.4,1.8.8,2.8,1.1l.8-2.5c-.7-.2-1.5-.5-2.2-.9-.8-.4-1.6-.9-2.4-1.4M689.5,182.6c0-.9.3-1.8.9-2.5.5-.7,1.3-1,2.2-1,.7,0,1.4.2,1.8.8.4.6.5,1.2.5,1.9,0,.5-.1,1-.3,1.5-.2.5-.5.9-.9,1.3-.4.4-.9.8-1.4,1.2-.5.4-1,.8-1.6,1.1-.3-.7-.6-1.4-.8-2.2-.2-.7-.3-1.4-.3-2.1h0ZM693.9,199.2c-.8.3-1.6.5-2.4.5-.6,0-1.3-.1-1.9-.3-.6-.2-1.1-.5-1.5-.9-.4-.4-.8-.9-1-1.4-.3-.6-.4-1.2-.4-1.8,0-.9.3-1.9.9-2.6.6-.8,1.4-1.5,2.2-2.1.9,1.3,1.9,2.6,3,3.8,1.1,1.2,2.2,2.4,3.5,3.4-.7.6-1.4,1-2.2,1.4"/>
        </g>
      </g>
      <g class="st3">
        <g class="st2">
          <path class="st5" d="M752.3,232.4c.3,0,.5-.2.5-.5v-3.6c0-.3-.2-.5-.5-.5h-3.4c-.3,0-.5.2-.5.5v3.6c0,.3.2.5.5.5h3.4Z"/>
          <path class="st5" d="M746.3,232.4c.3,0,.5-.2.5-.5v-3.6c0-.3-.2-.5-.5-.5h-3.4c-.3,0-.5.2-.5.5v3.6c0,.3.2.5.5.5h3.4Z"/>
          <path class="st5" d="M761.6,234.4c-.3,0-.5.2-.5.5v13.3c0,1-.2,1.7-.6,2.1-.4.4-1,.6-1.9.6h-22.4c-.8,0-1.4-.2-1.8-.6-.4-.4-.6-1.1-.6-2.1v-10.1c0-.3-.2-.5-.5-.5h-3.2c-.3,0-.5.2-.5.5v10.4c0,2.1.4,3.7,1.3,4.7.9,1,2.4,1.5,4.5,1.5h23.8c2.1,0,3.7-.5,4.6-1.5.9-1,1.3-2.6,1.3-4.7v-13.5c0-.3-.2-.5-.5-.5h-3.2Z"/>
          <path class="st5" d="M772.1,220.9c-.3,0-.5.2-.5.5v32.7c0,.3.2.5.5.5h3.2c.3,0,.5-.2.5-.5v-32.7c0-.3-.2-.5-.5-.5h-3.2Z"/>
          <path class="st5" d="M785.4,234.4c-.3,0-.5.2-.5.5v21.5c0,2.8-1.3,4.2-4,4.2h-1.1c-.3,0-.5.2-.5.5v2.9c0,.3.2.5.5.5h1.3c2.6,0,4.6-.7,5.9-2.1,1.4-1.4,2-3.4,2-6.1v-21.4c0-.3-.2-.5-.5-.5h-3.2Z"/>
          <path class="st5" d="M909.2,225.3v3.6c0,.3.2.5.5.5h3.4c.3,0,.5-.2.5-.5v-3.6c0-.3-.2-.5-.5-.5h-3.4c-.3,0-.5.2-.5.5"/>
          <path class="st5" d="M907,229.5c.3,0,.5-.2.5-.5v-3.6c0-.3-.2-.5-.5-.5h-3.4c-.3,0-.5.2-.5.5v3.6c0,.3.2.5.5.5h3.4Z"/>
          <path class="st5" d="M910.1,223.7c.3,0,.5-.2.5-.5v-3.6c0-.3-.2-.5-.5-.5h-3.4c-.3,0-.5.2-.5.5v3.6c0,.3.2.5.5.5h3.4Z"/>
          <path class="st5" d="M936.7,224.8h3.4c.3,0,.5.2.5.5v3.6c0,.3-.2.5-.5.5h-3.4c-.3,0-.5-.2-.5-.5v-3.6c0-.3.2-.5.5-.5Z"/>
          <path class="st5" d="M930.7,224.8h3.4c.3,0,.5.2.5.5v3.6c0,.3-.2.5-.5.5h-3.4c-.3,0-.5-.2-.5-.5v-3.6c0-.3.2-.5.5-.5Z"/>
          <path class="st5" d="M974.4,234.4c-.3,0-.5.2-.5.5v13.3c0,1-.2,1.7-.6,2.1-.4.4-1,.6-1.8.6h-1.2c-1.3,0-2.4-.3-3.2-.8-.8-.6-1.2-1.4-1.2-2.5v-8.3c0-.3-.2-.5-.5-.5h-3.2c-.3,0-.5.2-.5.5v9c0,1-.2,1.7-.6,2.1-.4.4-1,.6-1.8.6h-1.2c-1.3,0-2.4-.3-3.2-.8-.8-.6-1.2-1.4-1.2-2.5v-8.3c0-.3-.2-.5-.5-.5h-3.2c-.3,0-.5.2-.5.5v9c0,1-.2,1.7-.6,2.1-.4.4-1,.6-1.8.6h-5.2c-1.4,0-2.4-.3-3.2-.8-.8-.6-1.2-1.4-1.2-2.5v-12.5c0-.3-.2-.5-.5-.5h-3.2c-.3,0-.5.2-.5.5v13.3c0,1-.2,1.7-.6,2.1-.4.4-1,.6-1.8.6h-3.4s0,0,0,0,0,0,0,0h-.5c-1.4,0-2.4-.3-3.2-.8-.8-.6-1.2-1.4-1.2-2.5v-12.5c0-.3-.2-.5-.5-.5h-3.2c-.3,0-.5.2-.5.5v13.3c0,1-.2,1.7-.6,2.1-.4.4-1,.6-1.8.6h-1.1c-1.3,0-2.4-.3-3.2-.8-.8-.5-1.2-1.3-1.2-2.4v-8.5c0-.3-.2-.5-.5-.5h-3.2c-.3,0-.5.2-.5.5v9c0,1-.2,1.7-.6,2.1-.4.4-1,.6-1.8.6h-1.2c-1.3,0-2.4-.3-3.2-.8-.8-.6-1.2-1.4-1.2-2.5v-8.3c0-.3-.2-.5-.5-.5h-3.2c-.3,0-.5.2-.5.5v9c0,1-.2,1.7-.6,2.1-.4.4-1,.6-1.8.6h-4.6c0,0,0,0-.2,0,0,0,0,0-.2,0h-5.5s0,0,0,0,0,0,0,0h-5.5s0,0,0,0,0,0,0,0h-5.5s0,0,0,0,0,0,0,0h-5.5s0,0,0,0,0,0,0,0h-5.5s0,0,0,0,0,0,0,0h-5.5s0,0,0,0,0,0,0,0h-5.5s0,0,0,0,0,0,0,0h-5.5s0,0,0,0,0,0,0,0h-5.5s0,0,0,0,0,0,0,0h-5.5s0,0,0,0,0,0,0,0h-5.5s0,0,0,0,0,0,0,0h-5.5s0,0,0,0,0,0,0,0h-5.5s0,0,0,0,0,0,0,0h-5.5s0,0,0,0,0,0,0,0h-5.5s0,0,0,0,0,0,0,0h-2.2c-.8,0-1.4-.2-1.8-.6-.4-.4-.6-1.1-.6-2.1v-26.7c0-.3-.2-.5-.5-.5h-3.2c-.3,0-.5.2-.5.5v27c0,2.1.5,3.7,1.3,4.7.9,1,2.4,1.5,4.4,1.5h2.9s0,0,0,0,0,0,0,0h5.5s0,0,0,0,0,0,0,0h5.5s0,0,0,0,0,0,0,0h5.5s0,0,0,0,0,0,0,0h5.5s0,0,0,0,0,0,0,0h5.5s0,0,0,0,0,0,0,0h5.5s0,0,0,0,0,0,0,0h5.5s0,0,0,0,0,0,0,0h5.5s0,0,0,0,0,0,0,0h5.5s0,0,0,0,0,0,0,0h5.5s0,0,0,0,0,0,0,0h5.5s0,0,0,0,0,0,0,0h5.5s0,0,0,0,0,0,0,0h5.5s0,0,0,0,0,0,0,0h5.5s0,0,0,0,0,0,0,0h5.5c0,0,0,0,.2,0,0,0,0,0,.2,0h5.3c2.6,0,4.3-.9,5.2-2.6.4.9,1,1.5,1.8,1.9.8.4,1.7.6,2.8.6h2.4c2.6,0,4.3-.9,5.1-2.6.4.9,1,1.5,1.8,1.9.8.4,1.7.6,2.8.6h2.4c2.6,0,4.3-.9,5.2-2.6.4.9,1,1.5,1.8,1.9.8.4,1.7.6,2.8.6h1s0,0,0,0c0,0,0,0,0,0h4.1c2.6,0,4.3-.9,5.1-2.6.4.9,1,1.5,1.8,1.9.8.4,1.7.6,2.8.6h6.4c2.6,0,4.3-.9,5.1-2.6.4.9,1,1.5,1.8,1.9.8.4,1.7.6,2.8.6h2.4c2.6,0,4.3-.9,5.1-2.6.4.9,1,1.5,1.8,1.9.8.4,1.7.6,2.8.6h2.4c2.1,0,3.6-.5,4.5-1.5.9-1,1.3-2.6,1.3-4.7v-13.5c0-.3-.2-.5-.5-.5h-3.2Z"/>
          <path class="st5" d="M1024.1,220.9h-3.2c-.3,0-.5.2-.5.5v26.7c0,1-.2,1.7-.6,2.1-.4.4-1,.6-1.8.6h-3.1s0,0,0,0,0,0,0,0h-.5c-1.2,0-2.2-.2-3-.7-.8-.4-1.2-1.1-1.4-2.1v-26.6c0-.3-.2-.5-.5-.5h-3.2c-.3,0-.5.2-.5.5v26.7c0,1-.2,1.7-.6,2.1-.4.4-1,.6-1.8.6h-5.8v-22.3c0-.3-.2-.5-.5-.5h-3.2c-.3,0-.5.2-.5.5v22.3h-9.8c-.3,0-.5.2-.5.5v2.9c0,.3.2.5.5.5h20.5c2.6,0,4.3-.8,5.1-2.5.5.9,1.1,1.5,1.9,1.9.8.4,1.7.6,2.7.6h1s0,0,0,0c0,0,0,0,0,0h3.9c2.1,0,3.6-.5,4.5-1.5.9-1,1.3-2.6,1.3-4.7v-27c0-.3-.2-.5-.5-.5"/>
          <path class="st5" d="M336.9,226.9c.3,0,.5-.2.5-.5v-3.7c0-.3-.2-.5-.5-.5h-3.5c-.3,0-.5.2-.5.5v3.7c0,.3.2.5.5.5h3.5Z"/>
          <path class="st5" d="M330.6,226.9c.3,0,.5-.2.5-.5v-3.7c0-.3-.2-.5-.5-.5h-3.5c-.3,0-.5.2-.5.5v3.7c0,.3.2.5.5.5h3.5Z"/>
          <path class="st5" d="M554.2,259.7c-.3,0-.5.2-.5.5v3.7c0,.3.2.5.5.5h3.5c.3,0,.5-.2.5-.5v-3.7c0-.3-.2-.5-.5-.5h-3.5Z"/>
          <path class="st5" d="M548,259.7c-.3,0-.5.2-.5.5v3.7c0,.3.2.5.5.5h3.5c.3,0,.5-.2.5-.5v-3.7c0-.3-.2-.5-.5-.5h-3.5Z"/>
          <path class="st5" d="M576.5,229c.3,0,.5-.2.5-.5v-3.7c0-.3-.2-.5-.5-.5h-3.5c-.3,0-.5.2-.5.5v3.7c0,.3.2.5.5.5h3.5Z"/>
          <path class="st5" d="M605.4,229c.3,0,.5-.2.5-.5v-3.7c0-.3-.2-.5-.5-.5h-3.5c-.3,0-.5.2-.5.5v3.7c0,.3.2.5.5.5h3.5Z"/>
          <path class="st5" d="M599.2,229c.3,0,.5-.2.5-.5v-3.7c0-.3-.2-.5-.5-.5h-3.5c-.3,0-.5.2-.5.5v3.7c0,.3.2.5.5.5h3.5Z"/>
          <path class="st5" d="M627.2,229c.3,0,.5-.2.5-.5v-3.7c0-.3-.2-.5-.5-.5h-3.5c-.3,0-.5.2-.5.5v3.7c0,.3.2.5.5.5h3.5Z"/>
          <path class="st5" d="M621,229c.3,0,.5-.2.5-.5v-3.7c0-.3-.2-.5-.5-.5h-3.5c-.3,0-.5.2-.5.5v3.7c0,.3.2.5.5.5h3.5Z"/>
          <path class="st5" d="M636.1,220.1c-.3,0-.5.2-.5.5v27.6c0,1-.2,1.7-.6,2.1-.4.4-1,.6-1.9.6h-3.8c-1.4,0-2.5-.3-3.4-.9-.8-.6-1.3-1.5-1.3-2.6v-13c0-.3-.2-.5-.5-.5h-3.3c-.3,0-.5.2-.5.5v13.7c0,1-.2,1.7-.6,2.1-.4.4-1,.6-1.9.6h-3.5c0,0,0,0-.2,0,0,0-.1,0-.2,0h-7.1c-.3,0-.6,0-.8,0,1.4-1,2.6-2.2,3.4-3.7.8-1.5,1.2-3.1,1.2-4.9s-.2-2.6-.6-3.8c-.4-1.2-1-2.1-1.9-2.9-.8-.8-1.9-1.5-3.2-1.9-1.3-.5-2.8-.7-4.5-.7s-3.2.2-4.5.7c-1.3.5-2.3,1.1-3.2,1.9-.8.8-1.5,1.8-1.9,2.9-.4,1.1-.6,2.4-.6,3.8s.4,3.4,1.2,4.8c.8,1.5,1.9,2.7,3.3,3.7h-13.4c-1.4,0-2.5-.3-3.4-.9-.8-.6-1.3-1.5-1.3-2.6v-13c0-.3-.2-.5-.5-.5h-3.3c-.3,0-.5.2-.5.5v13.7c0,1-.2,1.7-.6,2.1-.4.4-1,.6-1.9.6h-3.2c0,0,0,0-.2,0,0,0-.1,0-.2,0h-5.6s0,0,0,0,0,0,0,0h-.6c-1.4,0-2.5-.3-3.4-.9-.8-.6-1.3-1.5-1.3-2.6v-13c0-.3-.2-.5-.5-.5h-3.3c-.3,0-.5.2-.5.5v13.7c0,1-.2,1.7-.6,2.1-.4.4-1,.6-1.9.6h-3.5c0,0,0,0-.2,0,0,0-.1,0-.2,0h-5.6s0,0,0,0,0,0,0,0h-5.6s0,0,0,0,0,0,0,0h-5.6s0,0,0,0,0,0,0,0h-5.6s0,0,0,0,0,0,0,0h-5.6s0,0,0,0,0,0,0,0h-5.6s0,0,0,0,0,0,0,0h-5.6s0,0,0,0,0,0,0,0h-5.6s0,0,0,0,0,0,0,0h-5.6s0,0,0,0,0,0,0,0h-5.6s0,0,0,0,0,0,0,0h-5.6s0,0,0,0,0,0,0,0h-5.6s0,0,0,0,0,0,0,0h-5.6s0,0,0,0,0,0,0,0h-5.6s0,0,0,0,0,0,0,0h-5.6s0,0,0,0,0,0,0,0h-5.6s0,0,0,0,0,0,0,0h-5.6s0,0,0,0,0,0,0,0h-5.6s0,0,0,0,0,0,0,0h-5.6s0,0,0,0,0,0,0,0h-5.6s0,0,0,0,0,0,0,0h-5.6s0,0,0,0,0,0,0,0h-5.6s0,0,0,0,0,0,0,0h-5.6s0,0,0,0,0,0,0,0h-5.6s0,0,0,0,0,0,0,0h-5.6s0,0,0,0,0,0,0,0h-5.6s0,0,0,0,0,0,0,0h-5.6s0,0,0,0,0,0,0,0h-5.6s0,0,0,0,0,0,0,0h-5.6s0,0,0,0,0,0,0,0h-5.6s0,0,0,0,0,0,0,0h-5.6s0,0,0,0,0,0,0,0h-5.6s0,0,0,0,0,0,0,0h-5.6s0,0,0,0,0,0,0,0h-5.6s0,0,0,0,0,0,0,0h-5.6s0,0,0,0,0,0,0,0h-2.3c-.9,0-1.5-.2-1.9-.6-.4-.4-.6-1.1-.6-2.1v-17.4c0-.3-.2-.5-.5-.5h-3.3c-.3,0-.5.2-.5.5v2.2h-5c-1.3,0-2.5.2-3.7.5-1.2.3-2.2.9-3.1,1.7-.9.8-1.6,1.9-2.2,3.1-.5,1.3-.8,2.9-.8,4.8s.2,3,.7,4.2c.5,1.2,1.1,2.1,2,2.9.8.8,1.8,1.3,3,1.7,1.1.4,2.4.6,3.7.6s2.2-.1,3.1-.5c1-.3,1.8-.8,2.5-1.4.3,1.5.9,2.5,1.9,3.1.9.6,2.2.9,3.9.9h3s0,0,0,0,0,0,0,0h5.6s0,0,0,0,0,0,0,0h5.6s0,0,0,0,0,0,0,0h5.6s0,0,0,0,0,0,0,0h5.6s0,0,0,0,0,0,0,0h5.6s0,0,0,0,0,0,0,0h5.6s0,0,0,0,0,0,0,0h5.6s0,0,0,0,0,0,0,0h5.6s0,0,0,0,0,0,0,0h5.6s0,0,0,0,0,0,0,0h5.6s0,0,0,0,0,0,0,0h5.6s0,0,0,0,0,0,0,0h5.6s0,0,0,0,0,0,0,0h5.6s0,0,0,0,0,0,0,0h5.6s0,0,0,0,0,0,0,0h5.6s0,0,0,0,0,0,0,0h5.6s0,0,0,0,0,0,0,0h5.6s0,0,0,0,0,0,0,0h5.6s0,0,0,0,0,0,0,0h5.6s0,0,0,0,0,0,0,0h5.6s0,0,0,0,0,0,0,0h5.6s0,0,0,0,0,0,0,0h5.6s0,0,0,0,0,0,0,0h5.6s0,0,0,0,0,0,0,0h5.6s0,0,0,0,0,0,0,0h5.6s0,0,0,0,0,0,0,0h5.6s0,0,0,0,0,0,0,0h5.6s0,0,0,0,0,0,0,0h5.6s0,0,0,0,0,0,0,0h5.6s0,0,0,0,0,0,0,0h5.6s0,0,0,0,0,0,0,0h5.6s0,0,0,0,0,0,0,0h5.6s0,0,0,0,0,0,0,0h5.6s0,0,0,0,0,0,0,0h5.6s0,0,0,0,0,0,0,0h5.6c0,0,0,0,.2,0,0,0,.1,0,.2,0h4.3c2.7,0,4.5-.9,5.3-2.7.4.9,1.1,1.6,1.9,2,.8.4,1.8.7,2.9.7h1.1s0,0,0,0,0,0,0,0h5.6c0,0,0,0,.2,0,0,0,.1,0,.2,0h4c2.7,0,4.5-.9,5.3-2.7.4.9,1.1,1.6,1.9,2,.8.4,1.8.7,2.9.7h12.6c1,0,2.1,0,3.4-.2,1.3-.1,2.5-.5,3.6-1.1,1,.6,2,1,3.1,1.1,1.1.1,2.3.2,3.5.2h6.8c0,0,0,0,.2,0,0,0,.1,0,.2,0h4.3c2.7,0,4.5-.9,5.3-2.7.4.9,1.1,1.6,1.9,2,.8.4,1.8.7,2.9.7h5.1c2.2,0,3.7-.5,4.6-1.6.9-1,1.4-2.7,1.4-4.9v-27.9c0-.3-.2-.5-.5-.5h-3.3ZM336.9,242.2c0,2.1-.4,3.6-1.2,4.8-.8,1.1-2.2,1.7-4.1,1.7s-2.9-.5-3.8-1.4-1.3-2.2-1.3-4,.5-4,1.5-4.9c1-.9,2.3-1.4,3.9-1.4h5v5.1ZM600.5,250.1c-1.6-.6-2.9-1.5-4-2.8-1.1-1.3-1.6-2.8-1.6-4.6s.5-3.2,1.6-4.1c1.1-1,2.4-1.4,4-1.4s3,.5,4,1.4c1.1,1,1.6,2.3,1.6,4.1s-.5,3.4-1.6,4.6c-1.1,1.2-2.4,2.2-4,2.8"/>
          <path class="st5" d="M647.5,220.1c-.3,0-.5.2-.5.5v33.8c0,.3.2.5.5.5h3.3c.3,0,.5-.2.5-.5v-33.8c0-.3-.2-.5-.5-.5h-3.3Z"/>
          <path class="st5" d="M688.4,234.6c-1.2,0-2.3.2-3.3.6-1,.4-2,1-2.7,1.8-.8.8-1.4,1.9-1.8,3.1-.4,1.3-.7,2.7-.7,4.4s.2,3.1.6,4.3c.4,1.2.9,2.1,1.7,2.8.7.7,1.6,1.2,2.7,1.5,1.1.3,2.2.5,3.5.5h4.8v1.2c0,.8-.1,1.5-.3,2.1-.2.5-.5,1-.9,1.3-.4.3-.8.5-1.3.7-.5.1-1.1.2-1.6.2h-5.3c-.3,0-.4.1-.4.4v2.6c0,.3.1.4.4.4h5.5c1.2,0,2.2-.1,3.2-.4.9-.3,1.8-.8,2.4-1.4.7-.6,1.2-1.4,1.6-2.4.4-1,.6-2.2.6-3.6v-10.4c0-3.4-.7-5.9-2.2-7.4-1.5-1.5-3.5-2.3-6.2-2.3M693.1,250.1h-4.5c-1.7,0-2.9-.4-3.8-1.2-.8-.8-1.3-2.3-1.3-4.4s.4-3.5,1.3-4.7c.9-1.2,2.1-1.8,3.6-1.8s2.9.6,3.6,1.6c.7,1.1,1.1,2.6,1.1,4.6v5.8Z"/>
        </g>
      </g>
    </g>
  </g>
</svg>